<svg xmlns="http://www.w3.org/2000/svg" xmlns:xlink="http://www.w3.org/1999/xlink" id="svg-logo-colored" preserveAspectRatio="xMidYMid" viewBox="0 0 800 209" class="svg-icon-sprite">
  <path d="M738.366,195.464 L725.802,195.464 L739.013,162.077 L705.315,76.900 L718.101,76.900 L746.265,146.830 L776.027,76.900 L788.255,76.900 L738.366,195.464 ZM658.666,139.343 L658.666,46.064 L670.405,46.064 L670.405,76.746 L690.793,76.746 L690.793,87.693 L670.405,87.693 L670.405,137.338 C670.405,150.393 677.201,156.919 690.793,156.919 L690.793,166.632 C669.375,166.632 658.666,157.536 658.666,139.343 ZM628.550,91.393 C625.152,94.168 622.835,96.584 621.599,98.639 C619.642,102.031 618.664,106.555 618.664,112.207 L618.664,164.782 L606.308,164.782 L606.308,76.900 L617.274,76.900 L617.274,89.389 C619.746,84.662 623.399,81.012 628.241,78.442 C632.667,76.079 637.199,74.999 641.833,75.204 L641.833,86.922 C636.374,87.129 631.948,88.618 628.550,91.393 ZM521.205,146.743 C527.793,152.501 535.569,155.327 544.528,155.223 C558.429,155.018 568.364,148.593 574.338,135.951 L586.848,135.951 C583.552,145.409 577.991,152.910 570.167,158.461 C562.341,164.011 553.641,166.839 544.064,166.941 C532.017,167.148 521.359,162.754 512.092,153.758 C502.825,144.765 498.087,134.050 497.882,121.612 C497.573,108.456 502.231,97.124 511.860,87.616 C521.487,78.109 532.840,73.715 545.918,74.433 C557.656,75.154 567.850,79.984 576.500,88.926 C584.841,97.767 589.011,107.635 589.011,118.528 L589.011,124.850 L509.930,124.850 C510.856,133.691 514.614,140.988 521.205,146.743 ZM577.427,114.057 C575.778,105.835 571.917,99.179 565.842,94.091 C559.766,89.003 552.506,86.409 544.064,86.305 C535.620,86.204 528.233,88.721 521.900,93.860 C515.567,99.001 511.575,105.732 509.930,114.057 L577.427,114.057 ZM432.239,166.941 C419.264,166.428 408.399,161.236 399.648,151.369 L399.648,195.618 L388.219,195.618 L388.219,121.458 C388.219,121.149 388.219,120.945 388.219,120.841 C388.219,108.198 392.826,97.278 402.042,88.078 C411.257,78.880 422.199,74.486 434.864,74.896 C447.117,75.204 457.492,79.829 465.987,88.772 C474.482,97.714 478.730,108.353 478.730,120.687 C478.730,133.537 474.147,144.561 464.983,153.758 C455.817,162.958 444.904,167.353 432.239,166.941 ZM457.680,97.225 C451.369,90.256 443.663,86.616 434.560,86.305 C424.837,85.792 416.535,89.148 409.657,96.375 C402.779,103.602 399.441,112.067 399.648,121.771 C399.856,131.063 403.165,139.013 409.579,145.621 C415.992,152.229 423.751,155.531 432.854,155.531 C442.165,155.531 450.129,152.229 456.749,145.621 C463.369,139.013 466.784,131.010 466.991,121.614 C467.092,112.325 463.989,104.195 457.680,97.225 ZM321.804,166.786 C309.549,166.478 299.176,161.853 290.681,152.910 C282.186,143.968 277.939,133.330 277.939,120.995 C277.939,108.148 282.519,97.124 291.685,87.924 C300.849,78.726 311.764,74.332 324.430,74.742 C336.682,75.154 347.082,79.856 355.630,88.849 C364.175,97.844 368.450,108.507 368.450,120.841 C368.450,133.484 363.840,144.406 354.626,153.604 C345.409,162.804 334.469,167.198 321.804,166.786 ZM346.724,96.064 C340.377,89.456 332.715,86.151 323.737,86.151 C314.344,86.050 306.344,89.328 299.739,95.987 C293.133,102.646 289.779,110.673 289.677,120.068 C289.470,129.360 292.515,137.490 298.812,144.459 C305.106,151.429 312.795,155.069 321.879,155.377 C331.581,155.893 339.861,152.537 346.724,145.310 C353.588,138.083 356.916,129.617 356.711,119.911 C356.402,110.622 353.072,102.672 346.724,96.064 ZM260.022,91.393 C256.624,94.168 254.307,96.584 253.072,98.639 C251.114,102.031 250.137,106.555 250.137,112.207 L250.137,164.782 L237.780,164.782 L237.780,76.900 L248.747,76.900 L248.747,89.389 C251.218,84.662 254.872,81.012 259.713,78.442 C264.139,76.079 268.672,74.999 273.305,75.204 L273.305,86.922 C267.846,87.129 263.420,88.618 260.022,91.393 ZM173.064,166.941 C160.090,166.428 149.225,161.236 140.474,151.369 L140.474,195.618 L129.045,195.618 L129.045,121.458 C129.045,121.149 129.045,120.945 129.045,120.841 C129.045,108.198 133.652,97.278 142.868,88.078 C152.083,78.880 163.025,74.486 175.690,74.896 C187.943,75.204 198.318,79.829 206.813,88.772 C215.308,97.714 219.556,108.353 219.556,120.687 C219.556,133.537 214.973,144.561 205.809,153.758 C196.643,162.958 185.730,167.353 173.064,166.941 ZM198.506,97.225 C192.195,90.256 184.489,86.616 175.386,86.305 C165.663,85.792 157.361,89.148 150.483,96.375 C143.604,103.602 140.267,112.067 140.474,121.771 C140.682,131.063 143.991,139.013 150.405,145.621 C156.818,152.229 164.577,155.531 173.680,155.531 C182.991,155.531 190.955,152.229 197.575,145.621 C204.195,139.013 207.609,131.010 207.817,121.614 C207.918,112.325 204.815,104.195 198.506,97.225 Z" fill="#43464b" style="fill-rule: evenodd;"/>
  <path d="M100.583,83.813 C91.069,74.264 79.777,69.755 66.706,70.285 C53.313,70.710 42.154,76.069 33.226,86.359 L33.226,16.373 L21.086,16.373 L21.086,117.076 L21.086,117.712 C20.766,130.763 25.451,142.063 35.143,151.612 C44.832,161.161 56.228,165.724 69.327,165.299 C81.999,164.876 92.754,160.047 101.594,150.816 C110.432,141.585 114.852,130.604 114.852,117.871 C114.852,104.717 110.095,93.362 100.583,83.813 ZM93.083,142.197 C86.556,149.322 78.587,153.096 69.172,153.522 C59.223,153.947 50.665,150.465 43.497,143.075 C36.328,135.684 32.907,126.938 33.226,116.835 C33.441,107.265 36.863,99.077 43.497,92.270 C50.128,85.467 58.098,82.062 67.408,82.062 C77.142,82.062 85.406,85.491 92.200,92.350 C98.993,99.208 102.498,107.425 102.712,116.994 C102.817,126.672 99.607,135.072 93.083,142.197 Z" fill="#0e6b4f" style="fill-rule: evenodd;"/>
  <path d="M68.359,99.821 C78.930,99.821 87.500,108.375 87.500,118.927 C87.500,129.479 78.930,138.034 68.359,138.034 C57.788,138.034 49.219,129.479 49.219,118.927 C49.219,108.375 57.788,99.821 68.359,99.821 Z" fill="#ee2a44" style="fill-rule: evenodd;"/>
</svg>
